<svg width="901" height="606" viewBox="0 0 901 606" fill="none" xmlns="http://www.w3.org/2000/svg">
<path d="M483.64 411H481.565L480.099 412.47L465.933 426.68L464.474 428.144V430.211V506V508.067L465.933 509.53L480.099 523.741L481.565 525.211H483.64H525.863V567.316H498.085V558.105V553.105H493.085H469.474H464.474V558.105V596V601H469.474H493.085H498.085V598.624L498.988 599.53L500.454 601H502.529H540.307H542.383L543.848 599.53L558.015 585.32L559.474 583.856V581.789V510.737V508.67L558.015 507.207L543.848 492.996L542.383 491.526H540.307H498.085V444.684H525.863V453.895V458.895H530.863H554.474H559.474V453.895V416V411H554.474H530.863H525.863V413.376L524.959 412.47L523.494 411H521.418H483.64Z" fill="white" stroke="black" stroke-width="10"/>
<mask id="path-2-outside-1_11_218" maskUnits="userSpaceOnUse" x="0" y="406" width="115" height="200" fill="black">
<rect fill="white" y="406" width="115" height="200"/>
<path fill-rule="evenodd" clip-rule="evenodd" d="M10 416H90.5263L104.737 430.211V581.789L90.5263 596H10V572.316H19.4737V439.684H10V416ZM43.1578 572.316V439.684H81.0525V572.316H43.1578Z"/>
</mask>
<path fill-rule="evenodd" clip-rule="evenodd" d="M10 416H90.5263L104.737 430.211V581.789L90.5263 596H10V572.316H19.4737V439.684H10V416ZM43.1578 572.316V439.684H81.0525V572.316H43.1578Z" fill="white"/>
<path d="M90.5263 416L97.5974 408.929L94.6684 406H90.5263V416ZM10 416V406H0V416H10ZM104.737 430.211H114.737V426.068L111.808 423.139L104.737 430.211ZM104.737 581.789L111.808 588.861L114.737 585.932V581.789H104.737ZM90.5263 596V606H94.6684L97.5974 603.071L90.5263 596ZM10 596H0V606H10V596ZM10 572.316V562.316H0V572.316H10ZM19.4737 572.316V582.316H29.4737V572.316H19.4737ZM19.4737 439.684H29.4737V429.684H19.4737V439.684ZM10 439.684H0V449.684H10V439.684ZM43.1578 439.684V429.684H33.1578V439.684H43.1578ZM43.1578 572.316H33.1578V582.316H43.1578V572.316ZM81.0525 439.684H91.0525V429.684H81.0525V439.684ZM81.0525 572.316V582.316H91.0525V572.316H81.0525ZM90.5263 406H10V426H90.5263V406ZM111.808 423.139L97.5974 408.929L83.4552 423.071L97.6658 437.282L111.808 423.139ZM114.737 581.789V430.211H94.7368V581.789H114.737ZM97.5974 603.071L111.808 588.861L97.6658 574.718L83.4552 588.929L97.5974 603.071ZM10 606H90.5263V586H10V606ZM0 572.316V596H20V572.316H0ZM19.4737 562.316H10V582.316H19.4737V562.316ZM9.47368 439.684V572.316H29.4737V439.684H9.47368ZM10 449.684H19.4737V429.684H10V449.684ZM0 416V439.684H20V416H0ZM33.1578 439.684V572.316H53.1578V439.684H33.1578ZM81.0525 429.684H43.1578V449.684H81.0525V429.684ZM91.0525 572.316V439.684H71.0525V572.316H91.0525ZM43.1578 582.316H81.0525V562.316H43.1578V582.316Z" fill="black" mask="url(#path-2-outside-1_11_218)"/>
<path d="M118.737 437.6V442.6H123.737H128.437V567H123.737H118.737V572V596V601H123.737H220.737H225.737V596V557.6V552.6H220.737H196.487H191.487V557.6V567H162.687V524.2H177.087H182.087V519.2V495.2V490.2H177.087H162.687V442.6H191.487V452V457H196.487H220.737H225.737V452V416V411H220.737H123.737H118.737V416V437.6Z" fill="white" stroke="black" stroke-width="10"/>
<path d="M234.737 437.6V442.6H239.737H244.437V567H239.737H234.737V572V596V601H239.737H336.737H341.737V596V557.6V552.6H336.737H312.487H307.487V557.6V567H278.687V524.2H293.087H298.087V519.2V495.2V490.2H293.087H278.687V442.6H307.487V452V457H312.487H336.737H341.737V452V416V411H336.737H239.737H234.737V416V437.6Z" fill="white" stroke="black" stroke-width="10"/>
<mask id="path-6-outside-2_11_218" maskUnits="userSpaceOnUse" x="345.737" y="406" width="115" height="200" fill="black">
<rect fill="white" x="345.737" y="406" width="115" height="200"/>
<path fill-rule="evenodd" clip-rule="evenodd" d="M355.737 596V572.316H365.211V439.684H355.737V416H436.263L450.474 430.211V506L436.263 520.211H388.895V572.316H398.368V596H355.737ZM388.895 439.684H426.789V496.526H388.895V439.684Z"/>
</mask>
<path fill-rule="evenodd" clip-rule="evenodd" d="M355.737 596V572.316H365.211V439.684H355.737V416H436.263L450.474 430.211V506L436.263 520.211H388.895V572.316H398.368V596H355.737ZM388.895 439.684H426.789V496.526H388.895V439.684Z" fill="white"/>
<path d="M355.737 572.316V562.316H345.737V572.316H355.737ZM355.737 596H345.737V606H355.737V596ZM365.211 572.316V582.316H375.211V572.316H365.211ZM365.211 439.684H375.211V429.684H365.211V439.684ZM355.737 439.684H345.737V449.684H355.737V439.684ZM355.737 416V406H345.737V416H355.737ZM436.263 416L443.334 408.929L440.405 406H436.263V416ZM450.474 430.211H460.474V426.068L457.545 423.139L450.474 430.211ZM450.474 506L457.545 513.071L460.474 510.142V506H450.474ZM436.263 520.211V530.211H440.405L443.334 527.282L436.263 520.211ZM388.895 520.211V510.211H378.895V520.211H388.895ZM388.895 572.316H378.895V582.316H388.895V572.316ZM398.368 572.316H408.368V562.316H398.368V572.316ZM398.368 596V606H408.368V596H398.368ZM426.789 439.684H436.789V429.684H426.789V439.684ZM388.895 439.684V429.684H378.895V439.684H388.895ZM426.789 496.526V506.526H436.789V496.526H426.789ZM388.895 496.526H378.895V506.526H388.895V496.526ZM345.737 572.316V596H365.737V572.316H345.737ZM365.211 562.316H355.737V582.316H365.211V562.316ZM355.211 439.684V572.316H375.211V439.684H355.211ZM355.737 449.684H365.211V429.684H355.737V449.684ZM345.737 416V439.684H365.737V416H345.737ZM436.263 406H355.737V426H436.263V406ZM457.545 423.139L443.334 408.929L429.192 423.071L443.403 437.282L457.545 423.139ZM460.474 506V430.211H440.474V506H460.474ZM443.334 527.282L457.545 513.071L443.403 498.929L429.192 513.139L443.334 527.282ZM388.895 530.211H436.263V510.211H388.895V530.211ZM398.895 572.316V520.211H378.895V572.316H398.895ZM398.368 562.316H388.895V582.316H398.368V562.316ZM408.368 596V572.316H388.368V596H408.368ZM355.737 606H398.368V586H355.737V606ZM426.789 429.684H388.895V449.684H426.789V429.684ZM436.789 496.526V439.684H416.789V496.526H436.789ZM388.895 506.526H426.789V486.526H388.895V506.526ZM378.895 439.684V496.526H398.895V439.684H378.895Z" fill="black" mask="url(#path-6-outside-2_11_218)"/>
<path d="M620.902 416V411H615.902H573.474H568.474V416V439.684V444.684H573.474H577.902V567.316H573.474H568.474V572.316V596V601H573.474H615.902H620.902V596V572.316V567.316H615.902H611.474V525.211H634.474V567.316H630.045H625.045V572.316V596V601H630.045H672.474H677.474V596V572.316V567.316H672.474H668.045V444.684H672.474H677.474V439.684V416V411H672.474H630.045H625.045V416V439.684V444.684H630.045H634.474V491.526H611.474V444.684H615.902H620.902V439.684V416Z" fill="white" stroke="black" stroke-width="10"/>
<mask id="path-9-outside-3_11_218" maskUnits="userSpaceOnUse" x="681.474" y="406" width="110" height="200" fill="black">
<rect fill="white" x="681.474" y="406" width="110" height="200"/>
<path fill-rule="evenodd" clip-rule="evenodd" d="M705.684 416H767.263L781.474 430.211V581.789L767.263 596H705.684L691.474 581.789V430.211L705.684 416ZM715.158 439.684H757.789V572.316H715.158V439.684Z"/>
</mask>
<path fill-rule="evenodd" clip-rule="evenodd" d="M705.684 416H767.263L781.474 430.211V581.789L767.263 596H705.684L691.474 581.789V430.211L705.684 416ZM715.158 439.684H757.789V572.316H715.158V439.684Z" fill="white"/>
<path d="M767.263 416L774.334 408.929L771.405 406H767.263V416ZM705.684 416V406H701.542L698.613 408.929L705.684 416ZM781.474 430.211H791.474V426.068L788.545 423.139L781.474 430.211ZM781.474 581.789L788.545 588.861L791.474 585.932V581.789H781.474ZM767.263 596V606H771.405L774.334 603.071L767.263 596ZM705.684 596L698.613 603.071L701.542 606H705.684V596ZM691.474 581.789H681.474V585.932L684.403 588.861L691.474 581.789ZM691.474 430.211L684.403 423.139L681.474 426.068V430.211H691.474ZM757.789 439.684H767.789V429.684H757.789V439.684ZM715.158 439.684V429.684H705.158V439.684H715.158ZM757.789 572.316V582.316H767.789V572.316H757.789ZM715.158 572.316H705.158V582.316H715.158V572.316ZM767.263 406H705.684V426H767.263V406ZM788.545 423.139L774.334 408.929L760.192 423.071L774.403 437.282L788.545 423.139ZM791.474 581.789V430.211H771.474V581.789H791.474ZM774.334 603.071L788.545 588.861L774.403 574.718L760.192 588.929L774.334 603.071ZM705.684 606H767.263V586H705.684V606ZM684.403 588.861L698.613 603.071L712.755 588.929L698.545 574.718L684.403 588.861ZM681.474 430.211V581.789H701.474V430.211H681.474ZM698.613 408.929L684.403 423.139L698.545 437.282L712.755 423.071L698.613 408.929ZM757.789 429.684H715.158V449.684H757.789V429.684ZM767.789 572.316V439.684H747.789V572.316H767.789ZM715.158 582.316H757.789V562.316H715.158V582.316ZM705.158 439.684V572.316H725.158V439.684H705.158Z" fill="black" mask="url(#path-9-outside-3_11_218)"/>
<path d="M800.474 411H795.474V416V453.895V458.895H800.474H824.158H828.632V567.316H824.158H819.158V572.316V596V601H824.158H866.789H871.789V596V572.316V567.316H866.789H862.316V458.895H866.789H890.474H895.474V453.895V416V411H890.474H800.474Z" fill="white" stroke="black" stroke-width="10"/>
<path d="M544.803 43.0281L628.903 195.8L585.752 219.535C572.374 198.737 554.265 180.71 532.976 167.171C512.665 154.284 489.824 145.637 466.413 141.967C479.546 102.081 506.383 66.519 544.803 43.0281Z" fill="#FC5609"/>
<path d="M462.008 157.872C506.791 164.235 546.761 189.683 571.396 227.447L476.119 279.894C456.869 240.906 452.79 197.839 462.008 157.872Z" fill="#FC5609"/>
<path d="M588.607 374.183C544.721 361.295 507.851 333.074 484.032 294.168L579.716 241.477C600.598 280.954 603.943 330.464 588.607 374.183Z" fill="#FC5609"/>
<path d="M604.514 378.098C612.426 354.771 615.689 329.648 614.057 304.853C612.345 279.567 605.411 255.098 593.991 233.565L636.734 210.074L720.835 362.764C684.781 380.708 644.239 386.01 604.514 378.098Z" fill="#FC5609"/>
<path d="M735.11 354.934L651.091 202.244L693.671 178.834C706.967 198.246 724.506 215.294 744.98 228.426C765.781 241.803 789.355 251.02 813.582 255.424C800.123 297.104 772.633 332.014 735.11 354.934Z" fill="#FC5609"/>
<path d="M817.987 239.6C773.041 231.933 732.989 206.892 708.029 170.841L803.876 118.15C822.555 155.833 827.531 198.329 817.987 239.6Z" fill="#FC5609"/>
<path d="M693.754 24.5129C735.029 37.1551 771.899 64.3986 795.963 103.876L699.463 156.975C678.254 116.437 676.134 66.6822 693.754 24.5129Z" fill="#FC5609"/>
<path d="M677.847 20.2719C668.955 42.3764 664.795 66.5191 665.611 90.744C666.508 116.763 673.279 142.212 685.188 164.805L643.178 187.889L559.078 35.1162C597.009 16.3564 638.856 11.9523 677.847 20.2719Z" fill="#FC5609"/>
<path fill-rule="evenodd" clip-rule="evenodd" d="M814.398 103.142V103.06C813.664 101.674 812.848 100.369 812.114 98.9821C757.624 5.42687 638.284 -27.2809 544.151 24.5945C544.151 24.5945 544.069 24.5945 544.069 24.676C543.987 24.676 543.987 24.7576 543.906 24.7576C542.601 25.4916 541.295 26.2256 539.99 26.9596C446.427 81.4457 413.717 200.776 465.597 294.902V294.983C465.597 294.983 465.597 295.065 465.679 295.065C466.413 296.37 467.147 297.675 467.881 298.98C494.556 344.819 537.625 377.608 589.097 391.23C606.145 395.716 623.438 398 640.568 398C673.686 398 706.315 389.68 735.926 373.367C735.926 373.367 736.008 373.367 736.008 373.286L736.089 373.204C737.394 372.47 738.7 371.736 740.005 371.002C785.44 344.575 817.987 302.08 831.855 251.346C831.936 251.101 832.018 250.857 832.099 250.53C832.181 250.286 832.181 250.123 832.262 249.878C845.477 199.96 839.114 148.003 814.398 103.142ZM795.963 103.876C771.899 64.3986 735.029 37.1551 693.754 24.5129C676.134 66.6822 678.254 116.437 699.463 156.975L795.963 103.876ZM665.611 90.744C664.795 66.5191 668.955 42.3764 677.847 20.2719C638.856 11.9523 597.009 16.3564 559.078 35.1162L643.178 187.889L685.188 164.805C673.279 142.212 666.508 116.763 665.611 90.744ZM628.903 195.8L544.803 43.0281C506.383 66.519 479.546 102.081 466.413 141.967C489.824 145.637 512.665 154.284 532.976 167.171C554.265 180.71 572.374 198.737 585.752 219.535L628.903 195.8ZM571.396 227.447C546.761 189.683 506.791 164.235 462.008 157.872C452.79 197.839 456.869 240.906 476.119 279.894L571.396 227.447ZM484.032 294.168C507.851 333.074 544.721 361.295 588.607 374.183C603.943 330.464 600.598 280.954 579.716 241.477L484.032 294.168ZM614.057 304.853C615.689 329.648 612.426 354.771 604.514 378.098C644.239 386.01 684.781 380.708 720.835 362.764L636.734 210.074L593.991 233.565C605.411 255.098 612.345 279.567 614.057 304.853ZM651.091 202.244L735.11 354.934C772.633 332.014 800.123 297.104 813.582 255.424C789.355 251.02 765.781 241.803 744.98 228.426C724.506 215.294 706.967 198.246 693.671 178.834L651.091 202.244ZM708.029 170.841C732.989 206.892 773.041 231.933 817.987 239.6C827.531 198.329 822.555 155.833 803.876 118.15L708.029 170.841Z" fill="black"/>
<rect x="65" y="241.465" width="53.6047" height="149.535" fill="#C8102E" stroke="black" stroke-width="10"/>
<rect x="134.767" y="35.6511" width="53.6047" height="355.349" fill="#1D428A" stroke="black" stroke-width="10"/>
<rect x="204.535" y="157.744" width="53.6047" height="233.256" fill="#C8102E" stroke="black" stroke-width="10"/>
<rect x="274.302" y="117.628" width="53.6047" height="273.372" fill="#1D428A" stroke="black" stroke-width="10"/>
<rect x="344.07" y="6" width="53.6047" height="385" fill="#1D428A" stroke="black" stroke-width="10"/>
<mask id="path-18-outside-4_11_218" maskUnits="userSpaceOnUse" x="408.837" y="236.465" width="64" height="160" fill="black">
<rect fill="white" x="408.837" y="236.465" width="64" height="160"/>
<path fill-rule="evenodd" clip-rule="evenodd" d="M447.173 246.465C450.703 260.244 455.772 273.815 462.442 286.943V386H418.837V246.465L447.173 246.465Z"/>
</mask>
<path fill-rule="evenodd" clip-rule="evenodd" d="M447.173 246.465C450.703 260.244 455.772 273.815 462.442 286.943V386H418.837V246.465L447.173 246.465Z" fill="#C8102E"/>
<path d="M447.173 246.465L456.86 243.983L454.934 236.465L447.173 236.465L447.173 246.465ZM462.442 286.943H472.442V284.548L471.357 282.413L462.442 286.943ZM462.442 386V396H472.442V386H462.442ZM418.837 386H408.837V396H418.837V386ZM418.837 246.465L418.837 236.465L408.837 236.465V246.465H418.837ZM437.486 248.947C441.196 263.427 446.522 277.686 453.527 291.472L471.357 282.413C465.022 269.944 460.211 257.06 456.86 243.983L437.486 248.947ZM452.442 286.943V386H472.442V286.943H452.442ZM462.442 376H418.837V396H462.442V376ZM428.837 386V246.465H408.837V386H428.837ZM418.837 256.465L447.173 256.465L447.173 236.465L418.837 236.465L418.837 256.465Z" fill="black" mask="url(#path-18-outside-4_11_218)"/>
<mask id="path-20-outside-5_11_218" maskUnits="userSpaceOnUse" x="478.605" y="300.245" width="64" height="96" fill="black">
<rect fill="white" x="478.605" y="300.245" width="64" height="96"/>
<path fill-rule="evenodd" clip-rule="evenodd" d="M488.605 328.245C501.237 343.058 515.911 355.847 532.209 366.289V386H488.605V328.245Z"/>
</mask>
<path fill-rule="evenodd" clip-rule="evenodd" d="M488.605 328.245C501.237 343.058 515.911 355.847 532.209 366.289V386H488.605V328.245Z" fill="#1D428A"/>
<path d="M488.605 328.245L496.214 321.756L478.605 301.106L478.605 328.245H488.605ZM532.209 366.289H542.209V360.82L537.604 357.869L532.209 366.289ZM532.209 386V396H542.209V386H532.209ZM488.605 386H478.605V396H488.605V386ZM480.996 334.733C494.267 350.296 509.688 363.736 526.814 374.709L537.604 357.869C522.135 347.958 508.207 335.82 496.214 321.756L480.996 334.733ZM522.209 366.289V386H542.209V366.289H522.209ZM532.209 376H488.605V396H532.209V376ZM498.605 386V328.245H478.605V386H498.605Z" fill="black" mask="url(#path-20-outside-5_11_218)"/>
</svg>
